<?xml version="1.0" encoding="utf-8"?>
<!-- Generator: Adobe Illustrator 25.0.1, SVG Export Plug-In . SVG Version: 6.00 Build 0)  -->
<svg version="1.1" id="Layer_1" xmlns="http://www.w3.org/2000/svg" xmlns:xlink="http://www.w3.org/1999/xlink" x="0px" y="0px"
	 viewBox="0 0 520 468" style="enable-background:new 0 0 520 468;" xml:space="preserve">
<style type="text/css">
	.st0{fill:none;}
	.st1{fill:none;stroke:#A4A4A5;stroke-width:8;}
</style>
<rect x="-0.2" y="-0.2" class="st0" width="519.3" height="468"/>
<path class="st1" d="M14.6,414.5c0.9,8.9,10.8-0.4,10.8-0.4l48.7-52.6l38.1-45.5c0,0,11.7-10.6,12.9,3.4c1.9,9.6,11.9,4.1,11.9,4.1
	s28.3-14.5,42.3-21.1c14-5.5,44.3-29.8,51-38.8c6.7-9,20.2-13.5,20.2-13.5c19.8-4.3,44.5,0,60.4,1.6c15.9,1.6,38,18.8,38,18.8
	c4.8,4.8,46.8,39.7,52.4,43c5.7,4.7,31.2,15.1,60,19.4c28.8,4.3,36.4-10.9,36.4-10.9s-0.5,1.9,10.4-26.4
	c10.9-28.3-18.4-27.9-18.4-27.9l-38.3-7.1c0,0-17.5-0.5-12.8-28.3c4.7-27.9-26-25.5-26-25.5s-38.3,0.5-73.2-1.4
	c-32.3-5.5-38.8-35.1-38.8-35.1s-8.3-24.3,12.9-34.8c28.8-12.8,78.9-45.8,91.1-56.7c12.3-10.9,22.2-3.8,22.2-3.8l22.7,19.4
	c0,0,12.3,7.6,20.3-1.4c8-9-3.8-20.8-3.8-20.8s-45.3-32.1-57.6-40.6c-12.3-8.5-21.7-0.5-21.7-0.5s-4.7,4.7-9.4,8
	c-4.7,3.3-13.7,9-24.1,0.5s-21.7,0.9-21.7,0.9S223,120.7,193.1,137.2c-29.8,14-65.4,66.4-65.4,66.4S117.5,219,106,224.3
	c-27.3,11.5-30.1,40.9-30.1,40.9s-1.6,3.2-25,39.8c-13.6,19.2-21.5,38.6-25.9,54L14.6,414.5z"/>
</svg>
