<?xml version="1.0" encoding="utf-8"?>
<!-- Generator: Adobe Illustrator 25.0.1, SVG Export Plug-In . SVG Version: 6.00 Build 0)  -->
<svg version="1.1"
	 id="svg4258" xmlns:cc="http://creativecommons.org/ns#" xmlns:dc="http://purl.org/dc/elements/1.1/" xmlns:inkscape="http://www.inkscape.org/namespaces/inkscape" xmlns:rdf="http://www.w3.org/1999/02/22-rdf-syntax-ns#" xmlns:sodipodi="http://sodipodi.sourceforge.net/DTD/sodipodi-0.dtd" xmlns:svg="http://www.w3.org/2000/svg"
	 xmlns="http://www.w3.org/2000/svg" xmlns:xlink="http://www.w3.org/1999/xlink" x="0px" y="0px" viewBox="0 0 1338 727"
	 style="enable-background:new 0 0 1338 727;" xml:space="preserve">
<style type="text/css">
	.st0{fill:none;stroke:#A4A4A5;stroke-width:23;stroke-linejoin:round;}
</style>
<defs>
	
		<inkscape:perspective  id="perspective4266" inkscape:persp3d-origin="372.04724 : 350.78739 : 1" inkscape:vp_x="0 : 526.18109 : 1" inkscape:vp_y="0 : 1000 : 0" inkscape:vp_z="744.09448 : 526.18109 : 1" sodipodi:type="inkscape:persp3d">
		</inkscape:perspective>
	
		<inkscape:perspective  id="perspective4275" inkscape:persp3d-origin="372.04724 : 350.78739 : 1" inkscape:vp_x="0 : 526.18109 : 1" inkscape:vp_y="0 : 1000 : 0" inkscape:vp_z="744.09448 : 526.18109 : 1" sodipodi:type="inkscape:persp3d">
		</inkscape:perspective>
	
		<inkscape:perspective  id="perspective4801" inkscape:persp3d-origin="372.04724 : 350.78739 : 1" inkscape:vp_x="0 : 526.18109 : 1" inkscape:vp_y="0 : 1000 : 0" inkscape:vp_z="744.09448 : 526.18109 : 1" sodipodi:type="inkscape:persp3d">
		</inkscape:perspective>
	
		<inkscape:perspective  id="perspective4818" inkscape:persp3d-origin="372.04724 : 350.78739 : 1" inkscape:vp_x="0 : 526.18109 : 1" inkscape:vp_y="0 : 1000 : 0" inkscape:vp_z="744.09448 : 526.18109 : 1" sodipodi:type="inkscape:persp3d">
		</inkscape:perspective>
	
		<inkscape:perspective  id="perspective2563" inkscape:persp3d-origin="372.04724 : 350.78739 : 1" inkscape:vp_x="0 : 526.18109 : 1" inkscape:vp_y="0 : 1000 : 0" inkscape:vp_z="744.09448 : 526.18109 : 1" sodipodi:type="inkscape:persp3d">
		</inkscape:perspective>
	
		<inkscape:perspective  id="perspective2576" inkscape:persp3d-origin="372.04724 : 350.78739 : 1" inkscape:vp_x="0 : 526.18109 : 1" inkscape:vp_y="0 : 1000 : 0" inkscape:vp_z="744.09448 : 526.18109 : 1" sodipodi:type="inkscape:persp3d">
		</inkscape:perspective>
	
		<inkscape:perspective  id="perspective3371" inkscape:persp3d-origin="372.04724 : 350.78739 : 1" inkscape:vp_x="0 : 526.18109 : 1" inkscape:vp_y="0 : 1000 : 0" inkscape:vp_z="744.09448 : 526.18109 : 1" sodipodi:type="inkscape:persp3d">
		</inkscape:perspective>
</defs>
<sodipodi:namedview  bordercolor="#ffffff" borderopacity="0.0" fit-margin-bottom="0" fit-margin-left="0" fit-margin-right="0" fit-margin-top="0" id="base" inkscape:current-layer="layer1" inkscape:cx="682.75722" inkscape:cy="273.16427" inkscape:document-units="px" inkscape:guide-bbox="true" inkscape:pageopacity="0.0" inkscape:pageshadow="0" inkscape:window-height="838" inkscape:window-maximized="1" inkscape:window-width="1600" inkscape:window-x="-8" inkscape:window-y="-8" inkscape:zoom="0.5" pagecolor="#ffffff" showgrid="false" showguides="true">
	</sodipodi:namedview>
<path class="st0" d="M1318,42.3c-0.6,7.7-3.5,20.8-9.9,25.9c-43.4,34.5-83.3,70.7-125.1,105.4c-10.2,8.8-8.5,23.5-2.6,41.7
	c2.8,8.6,7.6,22.2,5.1,30.8c-24,81.2-59.2,161.2-94.2,240.6c-3.4,7.8-6.9,15.5-10.3,23.3c-4,9-7.8,17.3-15.9,22.4
	c-17.1,10.8-48.5,23.8-65.6,34.9c-11.6,7.6-17.1,20.4-16.9,28.7c0.2,9.1-4.3,16.5-9.8,21.7c-2.3,2.2-20.7,6.9-39,11.1
	c-16.4,3.8-32.7,7-36.9,7.6c-36.5,4.7-67.3,7.5-138.4,14.5c-1.3,0.1-2.6,0.3-4,0.4c-19.8,2-62.8-0.6-81.3-4
	c-49-9.2-131.2-29.1-152.2-32c-9.4-2.4-28.3-7-47.1-11.4s-37.5-8.7-46.4-10.5c-2.9-0.6-6.6,0.5-7,4c-0.5,3.8-0.5,9.7-0.5,15.9v1
	c-30.7-0.1-60.8-0.1-95.5-0.4c-4.3,0-8.6-0.1-13-0.1H307c-11.3,0-27.4,2.3-36.7,5.2c-39.8,12.8-77.4,28.5-115.4,43.6
	c-10.3,4.1-20.6,8.1-31,12c-16,6-32.2,11.8-48.8,16.9c-7,2.2-22.3-1.5-25.9-7.3c-11.5-18-20.8-40.2-28.4-61.8
	c-3.6-10.3,4-18.2,14.2-22.7c12.3-5.5,26.5-11.3,40.5-17.2c26.8-11.3,53.4-23.2,66.6-34.9c27.5-24.5,81.9-82.3,123.4-117.9
	c23.7-20.3,44.6-35.2,74.8-48.6c8.6-3.8,17.7-7.7,27-11.6c28.8-12.1,59.8-24.2,85.9-34.8c4.5-1.8,10.1,0.1,11.5,10.2
	c0.8,6.1,3.5,8.6,7.8,8.7c21.4,0.6,43.4,0.9,65.4,0.9c85.5,0.3,173.2-2.1,242.7,1c8.2,0.4,17.4,5.6,25.7,9.1
	c8.3,3.4,20.8,3.6,23.8-1c11.2-15.5,35.8-46.7,37.9-61.7c2-14.3-23.3-110.6-26.1-139c-1.8-17.4,0.1-41.3,5.8-57.4
	c7.6-21.3,17.3-38.8,22.2-49.7c3.9-8.6,12.4-18.2,14.7-20.5c6.5-6.8,20.3-7.5,33.4-5.7c36.1,4.9,56,11.3,92.4,16.8
	c12.5,1.9,49,4.3,61.6,3c78.5-8,137.2-15.5,215-25.4c4.5-0.6,17.6-2,20.8,1.1C1313.5,30.7,1318.4,36.7,1318,42.3z"/>
</svg>
