<?xml version="1.0" encoding="utf-8"?>
<!-- Generator: Adobe Illustrator 25.0.1, SVG Export Plug-In . SVG Version: 6.00 Build 0)  -->
<svg version="1.1"
	 id="svg4182" xmlns:cc="http://creativecommons.org/ns#" xmlns:dc="http://purl.org/dc/elements/1.1/" xmlns:rdf="http://www.w3.org/1999/02/22-rdf-syntax-ns#"
	 xmlns="http://www.w3.org/2000/svg" xmlns:xlink="http://www.w3.org/1999/xlink" x="0px" y="0px" viewBox="0 0 397 369.7"
	 style="enable-background:new 0 0 397 369.7;" xml:space="preserve">
<style type="text/css">
	.st0{fill:none;stroke:#A4A4A5;stroke-width:6.3999;stroke-miterlimit:3.9999;}
</style>
<path id="path4192" class="st0" d="M207.5,3.2c-21.6,0.1-61.5,15.2-75.5,29.5c-14.4,14.6-36.8,95.5-36.8,132.7
	c0,10,13.4,70.1,21.9,98.2c1.1,3.6,6.8,24.7,12.6,47c12.3,46.7,15.1,53.2,23.9,55.3c6.7,1.6,8.8,0.6,16.6-7.7
	c10.1-10.8,12.9-11.4,23.3-5.1c28.6,17.3,68.8,2.3,77.6-29c39-138.4,57.2-211.4,54.1-217.4C319.8,96.2,283,89,263.1,94.6
	c-11.2,3.2-15,7.7-69.6,83.2c-21.9,30.3-21.9,30.3-39,29.6c-20.8-0.9-27.4-8.2-31.7-34.8c-5-31.5-2-38.3,12.6-28.4
	c13.4,9.1,21.7,9.6,29,1.7c9.2-9.9,7.2-15.9-12.1-35.8c-15.6-16.2-24.9-40.4-18.4-47.7c3.9-4.3,8.5-1.7,20,11.6
	c22.4,25.9,37.7,30.7,57,18c11.1-7.3,46.2-62.9,43.5-68.9c-2.9-6.4-24.1-16.6-40.8-19.6C211.8,3.3,209.8,3.2,207.5,3.2L207.5,3.2z"
	/>
</svg>
