<?xml version="1.0" encoding="utf-8"?>
<!-- Generator: Adobe Illustrator 25.0.1, SVG Export Plug-In . SVG Version: 6.00 Build 0)  -->
<svg version="1.1"
	 id="svg4149" xmlns:cc="http://creativecommons.org/ns#" xmlns:dc="http://purl.org/dc/elements/1.1/" xmlns:rdf="http://www.w3.org/1999/02/22-rdf-syntax-ns#"
	 xmlns="http://www.w3.org/2000/svg" xmlns:xlink="http://www.w3.org/1999/xlink" x="0px" y="0px" viewBox="0 0 411.7 343.7"
	 style="enable-background:new 0 0 411.7 343.7;" xml:space="preserve">
<style type="text/css">
	.st0{fill:none;stroke:#A4A4A5;stroke-width:7.5999;stroke-linejoin:round;stroke-miterlimit:3.9999;}
</style>
<path id="path4159" class="st0" d="M352.8,4.2C339,5,329.3,16.3,318,22.9c-15.1,10.8-32.9,19.2-44.4,34.2
	c-3.8,11.9,7.2,21.8,7.7,33.5c2.4,12.9-4,27.7-17,31.8c-21.6,8-44-3.3-66.2-0.6c-15.2,1.3-30.6,4.4-45.7,1.1
	c-13.9-2.8-28-3.1-42.1-3.1c-20.3-0.7-40.4-4.5-60.1-8.5c-9.8,3.5-9.2,16.1-15.3,23c-9.3,14.9-16.9,30.9-19.7,48.3
	c-10.4,42.6-16.3,87.9-6,131.1c3,6.9-2,16.8,5.5,21.5c8.5,5.6,19.5,4.5,29.1,4.6c6.4-3.2,3.5-12.2-0.9-15.9
	c-6.8-7.2-11.8-16-14.1-25.6c-4.2-13.9-6.1-29.8-0.1-43.4c4.8-5.3,10.3-10.8,10.4-18.5c2.5-11.6,5.6-24.5-0.1-35.6
	c-6.7-18.5,1.4-38.4,12-53.5c5.3-6.2,10.4-14.3,18.6-16.6c12.2-1.6,24,3.5,36,4.9c20.1,4,41,5.4,60.5,11.7
	c5.5,3.2,13.4,5.9,18.5,0.5c10.8-5,22.5,1.5,33.7,0.9c45.4,3.6,94.4-5.7,129.2-36.8c23.6-21.1,44.4-46.1,58.1-74.8
	c3.3-6.4,3.6-17.1-4.8-19.5c-8.8-2.8-18.7-1.7-27.3,1c-6.8,3.6-5.7,12.5-1.8,17.8c2.2,4.1,6.7,10.3,2.8,14.6
	c-5.3,1.9-12.8-1.9-11.9-8.1c-1.2-9.7-5.9-20.1-1-29.3c1.7-3.9-0.5-8.7-4.9-9.2C359.5,6,353.9,3.3,352.8,4.2L352.8,4.2z"/>
</svg>
