<?xml version="1.0" encoding="utf-8"?>
<!-- Generator: Adobe Illustrator 25.0.1, SVG Export Plug-In . SVG Version: 6.00 Build 0)  -->
<svg version="1.1"
	 id="svg4343" xmlns:cc="http://creativecommons.org/ns#" xmlns:dc="http://purl.org/dc/elements/1.1/" xmlns:rdf="http://www.w3.org/1999/02/22-rdf-syntax-ns#"
	 xmlns="http://www.w3.org/2000/svg" xmlns:xlink="http://www.w3.org/1999/xlink" x="0px" y="0px" viewBox="0 0 516.7 263.8"
	 style="enable-background:new 0 0 516.7 263.8;" xml:space="preserve">
<style type="text/css">
	.st0{fill:none;stroke:#A4A4A5;stroke-width:7.8;stroke-linejoin:round;stroke-miterlimit:4;}
</style>
<path id="path4353" class="st0" d="M4.1,29.3c0.3,7.1,4.5,17,11.1,32c5.6,12.7,11.2,26.9,12.6,31.5l2.5,8.3l4.9,1.8
	c3.7,1.4,5,2.4,5.1,4.1c1.5,15.8,14.6,90.6,17.3,98.3c13.2,38.1,37.9,53.9,83.4,53.2c8.5-0.1,15.8-0.1,16.1,0
	c0.9,0.4,16.8-3.7,25.9-6.7c10.3-3.4,11.3-3.3,11.7,1.4c0.5,5.5-10.9,5,107.4,5.1c18.2,0,53.3,0.3,77.9,0.7l44.7,0.6l26.8-3.3
	c41.6-5.1,54.5-12.2,59.9-32.6c2.5-9.6,1.5-13.7-5.2-20.9c-4.8-5.1-7.9-5.8-29.6-6.1c-10.6-0.2-56.3-0.9-101.6-1.6
	c-104.1-1.6-99.3-1.3-104.1-7.2c-5.4-6.7-14.9-9.4-25.9-7.5c-8.6,1.5-5.1,4-35.4-24.8c-88.2-83.9-79.7-74.4-119-133.8
	C76.8,1.2,79.7,2.4,55.2,6.6C17,13.1,3.5,15.9,4.1,29.3L4.1,29.3z"/>
</svg>
