<?xml version="1.0" encoding="utf-8"?>
<!-- Generator: Adobe Illustrator 25.0.1, SVG Export Plug-In . SVG Version: 6.00 Build 0)  -->
<svg version="1.1"
	 id="svg4245" xmlns:cc="http://creativecommons.org/ns#" xmlns:dc="http://purl.org/dc/elements/1.1/" xmlns:rdf="http://www.w3.org/1999/02/22-rdf-syntax-ns#"
	 xmlns="http://www.w3.org/2000/svg" xmlns:xlink="http://www.w3.org/1999/xlink" x="0px" y="0px" viewBox="0 0 425.7 327.1"
	 style="enable-background:new 0 0 425.7 327.1;" xml:space="preserve">
<style type="text/css">
	.st0{fill:none;stroke:#A4A4A5;stroke-width:7.5;stroke-linejoin:round;stroke-miterlimit:4;}
</style>
<path id="path4259" class="st0" d="M25.2,30.2c-0.3,1-0.6,2-0.9,3C16.4,62.9,10.2,93,4.9,123.1c-2.5,14.7-1.5,31,8.2,43.1
	c10,12.8,21.8,24.3,34.6,34.4c5.2,4.5,12.8,4,18-0.2c6.4-3.3,10.1-11.8,5.7-18.1c-5.8-10.3-19.2-11.7-26.6-20.2
	c-5.6-6.5,0.2-15.6,6.6-18.9c45.4-27.2,91.1-54.1,137.3-79.8c5.1-3,10.9-2.8,16.1-0.1c10.1,4.7,20.6,10.8,26.7,20.5
	c0.1,3.9-6,3-8.6,3.5c-8.3,1-17.5-2.1-25.2,1.9c-5,4.9-0.7,12.7,0.6,18.3c4.8,16,13.7,31.1,15,48c-0.2,16.9-12.9,30.3-16.4,46.3
	c-0.8,13,8.8,23.6,15.1,34.1c14.7,22.1,31.6,42.8,45.6,65.4c5.8,10.1,14.3,22.1,27.2,22c11.5,0.6,25.6-1,32.4-11.5
	c3.7-5.8-0.1-12.1-1.8-17.7c2.8-4.9,10.1-5.2,14.7-8c20.7-8.6,40.5-19.8,63.1-22.6c9.5-1.5,20.5-3.8,25.4-13.2
	c4.2-8.1,5.2-18.8-1.1-26.3c-21.6-32.7-51.6-58.4-78-87.1c-17.6-18.9-36.7-36.5-53.1-56.3c-9.2-11.8-6.2-30.3-18.4-40.3
	c-7.2-4.9-16.4-4.7-24.1-1.4c-9.5,4.7-20.3,1.5-28.2-4.7c-8.8-6-17.5-16.3-29.4-13.7c-8.8,1.4-17.9,3.7-26.6,0.6
	C124.3,12.1,88.2,1.9,51.3,4c-10.5,0.1-19.5,7.5-22.9,17.3C27.2,24.2,26.1,27.2,25.2,30.2L25.2,30.2z"/>
</svg>
