<?xml version="1.0" standalone="no"?>
<!DOCTYPE svg PUBLIC "-//W3C//DTD SVG 20010904//EN"
 "http://www.w3.org/TR/2001/REC-SVG-20010904/DTD/svg10.dtd">
<svg version="1.0" xmlns="http://www.w3.org/2000/svg"
 width="700.000000pt" height="700.000000pt" viewBox="0 0 700.000000 700.000000"
 preserveAspectRatio="xMidYMid meet">
<metadata>
Created by potrace 1.11, written by Peter Selinger 2001-2013
</metadata>
<g transform="translate(0.000000,700.000000) scale(0.100000,-0.100000)"
fill="#000000" stroke="none">
<path d="M2225 4363 c-311 -39 -602 -171 -813 -368 -84 -78 -1362 -1356 -1362
-1361 0 -2 222 -4 493 -4 l492 0 423 423 c233 232 442 435 465 452 127 91 236
142 386 183 l96 26 1354 2 1354 2 326 326 326 326 -1755 -2 c-965 0 -1768 -3
-1785 -5z"/>
<path d="M5046 3500 l-870 -870 541 0 541 0 866 866 c476 477 866 868 866 870
0 2 -242 4 -537 4 l-538 0 -869 -870z"/>
<path d="M2418 3605 c-1 -2 -16 -5 -33 -8 -63 -10 -160 -39 -208 -62 -116 -56
-175 -109 -569 -502 l-403 -403 454 0 454 0 146 143 c106 104 163 151 207 174
58 29 75 35 149 49 17 4 426 7 910 8 l880 1 298 298 c163 163 297 299 297 302
0 5 -2576 6 -2582 0z"/>
</g>
</svg>
